<svg width="120.000000" height="24.000000" viewBox="0 0 120 24" fill="none" xmlns="http://www.w3.org/2000/svg" xmlns:xlink="http://www.w3.org/1999/xlink">
	<desc>
			Created with Pixso.
	</desc>
	<defs>
		<clipPath id="clip1_219">
			<rect id="bxs-star 1" rx="-0.500000" width="23.000000" height="23.000000" transform="translate(0.500000 0.500000)" fill="white" fill-opacity="0"/>
		</clipPath>
		<clipPath id="clip1_221">
			<rect id="bxs-star 2" rx="-0.500000" width="23.000000" height="23.000000" transform="translate(24.500000 0.500000)" fill="white" fill-opacity="0"/>
		</clipPath>
		<clipPath id="clip1_223">
			<rect id="bxs-star 3" rx="-0.500000" width="23.000000" height="23.000000" transform="translate(48.500000 0.500000)" fill="white" fill-opacity="0"/>
		</clipPath>
		<clipPath id="clip1_225">
			<rect id="bxs-star 4" rx="-0.500000" width="23.000000" height="23.000000" transform="translate(72.500000 0.500000)" fill="white" fill-opacity="0"/>
		</clipPath>
		<clipPath id="clip1_227">
			<rect id="bxs-star 5" rx="-0.500000" width="23.000000" height="23.000000" transform="translate(96.500000 0.500000)" fill="white" fill-opacity="0"/>
		</clipPath>
	</defs>
	<rect id="bxs-star 1" rx="-0.500000" width="23.000000" height="23.000000" transform="translate(0.500000 0.500000)" fill="#FFFFFF" fill-opacity="0"/>
	<g clip-path="url(#clip1_219)">
		<path id="Vector" d="M21.94 9.17C21.81 8.8 21.47 8.53 21.07 8.5L15.37 8.05L12.91 2.58C12.75 2.22 12.39 2 12 2C11.6 2 11.25 2.22 11.08 2.58L8.62 8.05L2.92 8.5C2.52 8.53 2.19 8.79 2.05 9.16C1.92 9.52 2.02 9.94 2.3 10.21L6.51 14.32L5.02 20.77C4.93 21.17 5.09 21.58 5.43 21.82C5.6 21.93 5.8 22 5.99 22C6.19 22 6.38 21.94 6.55 21.83L12 18.2L17.44 21.83C17.79 22.06 18.25 22.05 18.59 21.8C18.92 21.56 19.07 21.12 18.96 20.72L17.13 14.32L21.66 10.24C21.96 9.97 22.07 9.55 21.94 9.17Z" fill="#1b1b1d" fill-opacity="1.000000" fill-rule="nonzero"/>
	</g>
	<rect id="bxs-star 2" rx="-0.500000" width="23.000000" height="23.000000" transform="translate(24.500000 0.500000)" fill="#FFFFFF" fill-opacity="0"/>
	<g clip-path="url(#clip1_221)">
		<path id="Vector" d="M45.94 9.17C45.81 8.8 45.47 8.53 45.07 8.5L39.37 8.05L36.91 2.58C36.75 2.22 36.39 2 36 2C35.6 2 35.25 2.22 35.08 2.58L32.62 8.05L26.92 8.5C26.53 8.53 26.19 8.79 26.06 9.16C25.92 9.52 26.02 9.94 26.3 10.21L30.51 14.32L29.02 20.77C28.93 21.17 29.09 21.58 29.43 21.82C29.6 21.93 29.8 22 30 22C30.19 22 30.38 21.94 30.55 21.83L36 18.2L41.44 21.83C41.79 22.06 42.25 22.05 42.59 21.8C42.92 21.56 43.07 21.12 42.96 20.72L41.13 14.32L45.66 10.24C45.96 9.97 46.07 9.55 45.94 9.17Z" fill="#1b1b1d" fill-opacity="1.000000" fill-rule="nonzero"/>
	</g>
	<rect id="bxs-star 3" rx="-0.500000" width="23.000000" height="23.000000" transform="translate(48.500000 0.500000)" fill="#FFFFFF" fill-opacity="0"/>
	<g clip-path="url(#clip1_223)">
		<path id="Vector" d="M69.94 9.17C69.81 8.8 69.47 8.53 69.07 8.5L63.37 8.05L60.91 2.58C60.75 2.22 60.39 2 60 2C59.6 2 59.25 2.22 59.08 2.58L56.62 8.05L50.92 8.5C50.53 8.53 50.19 8.79 50.06 9.16C49.92 9.52 50.02 9.94 50.3 10.21L54.51 14.32L53.02 20.77C52.93 21.17 53.09 21.58 53.43 21.82C53.6 21.93 53.8 22 54 22C54.19 22 54.38 21.94 54.55 21.83L60 18.2L65.44 21.83C65.79 22.06 66.25 22.05 66.58 21.8C66.92 21.56 67.07 21.12 66.96 20.72L65.13 14.32L69.66 10.24C69.96 9.97 70.07 9.55 69.94 9.17Z" fill="#1b1b1d" fill-opacity="1.000000" fill-rule="nonzero"/>
	</g>
	<rect id="bxs-star 4" rx="-0.500000" width="23.000000" height="23.000000" transform="translate(72.500000 0.500000)" fill="#FFFFFF" fill-opacity="0"/>
	<g clip-path="url(#clip1_225)">
		<path id="Vector" d="M93.94 9.17C93.81 8.8 93.47 8.53 93.07 8.5L87.37 8.05L84.91 2.58C84.75 2.22 84.39 2 84 2C83.6 2 83.25 2.22 83.08 2.58L80.62 8.05L74.92 8.5C74.53 8.53 74.19 8.79 74.06 9.16C73.92 9.52 74.02 9.94 74.3 10.21L78.51 14.32L77.02 20.77C76.93 21.17 77.09 21.58 77.43 21.82C77.6 21.93 77.8 22 78 22C78.19 22 78.38 21.94 78.55 21.83L84 18.2L89.44 21.83C89.79 22.06 90.25 22.05 90.59 21.8C90.92 21.56 91.07 21.12 90.96 20.72L89.13 14.32L93.66 10.24C93.96 9.97 94.07 9.55 93.94 9.17Z" fill="#1b1b1d" fill-opacity="1.000000" fill-rule="nonzero"/>
	</g>
	<rect id="bxs-star 5" rx="-0.500000" width="23.000000" height="23.000000" transform="translate(96.500000 0.500000)" fill="#FFFFFF" fill-opacity="0"/>
	<g clip-path="url(#clip1_227)">
		<path id="Vector" d="M117.94 9.17C117.81 8.8 117.47 8.53 117.07 8.5L111.37 8.05L108.91 2.58C108.75 2.22 108.39 2 108 2C107.6 2 107.25 2.22 107.08 2.58L104.62 8.05L98.92 8.5C98.53 8.53 98.19 8.79 98.06 9.16C97.92 9.52 98.02 9.94 98.3 10.21L102.51 14.32L101.02 20.77C100.93 21.17 101.09 21.58 101.43 21.82C101.6 21.93 101.8 22 102 22C102.19 22 102.38 21.94 102.55 21.83L108 18.2L113.44 21.83C113.79 22.06 114.25 22.05 114.59 21.8C114.92 21.56 115.07 21.12 114.96 20.72L113.13 14.32L117.66 10.24C117.96 9.97 118.07 9.55 117.94 9.17Z" fill="#1b1b1d" fill-opacity="1.000000" fill-rule="nonzero"/>
	</g>
</svg>
