<svg width="20.001617" height="19.496094" viewBox="0 0 20.0016 19.4961" fill="none" xmlns="http://www.w3.org/2000/svg" xmlns:xlink="http://www.w3.org/1999/xlink">
	<desc>
			Created with Pixso.
	</desc>
	<defs/>
	<path id="Vector" d="M6.13 0L2.42 6.49L1 6.49C0.68 6.49 0.39 6.64 0.2 6.88C0.01 7.13 -0.05 7.45 0.03 7.75L2.83 18.02C3.07 18.88 3.86 19.49 4.76 19.49L15.23 19.49C16.13 19.49 16.92 18.89 17.16 18.02L19.96 7.75C20.04 7.45 19.98 7.13 19.79 6.88C19.6 6.64 19.31 6.49 19 6.49L17.58 6.49L13.86 0L12.13 0.99L15.27 6.49L4.72 6.49L7.86 0.99L6.13 0ZM12 10.49L14 10.49L14 15.49L12 15.49L12 10.49ZM6 10.49L8 10.49L8 15.49L6 15.49L6 10.49Z" fill="#1B1B1D" fill-opacity="1.000000" fill-rule="nonzero"/>
</svg>
