<svg width="150.000000" height="150.000000" viewBox="0 0 150 150" fill="none" xmlns="http://www.w3.org/2000/svg" xmlns:xlink="http://www.w3.org/1999/xlink">
	<desc>
			Created with Pixso.
	</desc>
	<defs>
		<clipPath id="clip1_119">
			<rect id="food" rx="-0.500000" width="149.000000" height="149.000000" transform="translate(0.500000 0.500000)" fill="white" fill-opacity="0"/>
		</clipPath>
	</defs>
	<rect id="food" rx="-0.500000" width="149.000000" height="149.000000" transform="translate(0.500000 0.500000)" fill="#FFFFFF" fill-opacity="0"/>
	<g clip-path="url(#clip1_119)">
		<path id="Vector" d="M125.62 78.7C124.94 77.92 124.36 77.07 123.89 76.18C123.65 100.3 103.96 119.85 79.78 119.85C55.46 119.85 35.68 100.07 35.68 75.74C35.68 51.42 55.46 31.64 79.78 31.64C100.71 31.64 118.27 46.28 122.77 65.86L126.77 36.16L126.86 35.49C115.48 22.21 98.6 13.78 79.78 13.78C65.1 13.78 51.6 18.91 40.97 27.48L40.97 28.12L40.97 28.69L40.97 41.26L40.97 41.76C40.97 50.16 36.62 57.83 29.73 62.22L29.73 111.38L29.73 112.22C41.01 127.66 59.24 137.71 79.78 137.71C101.37 137.71 120.41 126.61 131.5 109.83L131.5 108.92L131.5 82.59C129.25 81.86 127.21 80.53 125.62 78.7Z" fill="#64646A" fill-opacity="1.000000" fill-rule="nonzero"/>
		<path id="Vector" d="M79.78 39.13C59.6 39.13 43.17 55.56 43.17 75.74C43.17 95.93 59.6 112.36 79.78 112.36C99.97 112.36 116.4 95.93 116.4 75.74C116.4 55.56 99.97 39.13 79.78 39.13Z" fill="#64646A" fill-opacity="1.000000" fill-rule="nonzero"/>
		<path id="Vector" d="M149.83 7.23C149.83 4.04 147.24 1.45 144.05 1.45C141.16 1.45 138.71 3.59 138.33 6.46L129.89 69.2C129.67 70.85 130.17 72.52 131.26 73.77C132.36 75.03 133.95 75.74 135.61 75.74L139 75.74L139 143.04C139 146.08 141.46 148.54 144.5 148.54C147.53 148.54 149.99 146.08 149.99 143.04L149.83 7.23Z" fill="#64646A" fill-opacity="1.000000" fill-rule="nonzero"/>
		<path id="Vector" d="M33.48 8.45C33.48 6.38 31.8 4.7 29.73 4.7C27.66 4.7 25.98 6.38 25.98 8.45L25.98 29.19L20.48 29.19L20.48 8.45C20.48 6.38 18.81 4.7 16.74 4.7C14.67 4.7 12.99 6.38 12.99 8.45L12.99 29.19L7.49 29.19L7.49 8.45C7.49 6.38 5.81 4.7 3.74 4.7C1.67 4.7 0 6.38 0 8.45L0 42.26C0 49.57 4.7 55.79 11.24 58.07L11.24 143.04C11.24 146.08 13.7 148.54 16.74 148.54C19.77 148.54 22.23 146.08 22.23 143.04L22.23 58.07C28.77 55.79 33.48 49.57 33.48 42.26L33.48 8.45Z" fill="#64646A" fill-opacity="1.000000" fill-rule="nonzero"/>
	</g>
</svg>
