<svg width="150.000000" height="150.000000" viewBox="0 0 150 150" fill="none" xmlns="http://www.w3.org/2000/svg" xmlns:xlink="http://www.w3.org/1999/xlink">
	<desc>
			Created with Pixso.
	</desc>
	<defs>
		<clipPath id="clip1_112">
			<rect id="ice-cream" rx="-0.500000" width="149.000000" height="149.000000" transform="translate(0.500000 0.500000)" fill="white" fill-opacity="0"/>
		</clipPath>
	</defs>
	<rect id="ice-cream" rx="-0.500000" width="149.000000" height="149.000000" transform="translate(0.500000 0.500000)" fill="#FFFFFF" fill-opacity="0"/>
	<g clip-path="url(#clip1_112)">
		<path id="Vector" d="M116.15 51.64C114.48 50.57 113.61 48.65 113.93 46.75C118.04 22.38 99.23 0.34 75.03 0C49.83 -0.36 30.54 22.35 35.06 47.24C35.4 49.11 34.64 51.03 33.12 52.12C28.93 55.15 26.62 60.05 26.93 65.22C27.75 78.71 44.64 84.24 53.33 74.06C53.45 74.13 53.57 74.21 53.7 74.28C54.97 75.06 55.73 76.38 55.73 77.81L55.73 84.28C55.73 86.73 56.71 89.02 58.47 90.73C64.1 96.16 73.65 92.26 73.65 84.12L73.65 69.47C73.65 65.9 77.82 64.01 80.36 66.48C81.13 67.23 81.56 68.24 81.56 69.32L81.56 76.82C81.56 81.85 85.71 85.95 90.85 85.78C97.6 85.53 99.04 80.42 99.41 76.55C109.14 83.41 122.63 76.72 123.08 64.86C123.27 59.56 120.62 54.49 116.15 51.64ZM68.33 20.89C66.2 21.6 66.06 21.97 65.12 21.97C62.45 21.97 61.65 18.33 64.06 17.2C64.94 16.8 65.85 16.44 66.76 16.13C68.08 15.7 69.49 16.41 69.93 17.73C70.36 19.04 69.65 20.45 68.33 20.89ZM52.66 37.12C51.03 37.12 49.83 35.6 50.22 34.02C51.11 30.4 52.84 26.95 55.22 24.05C56.1 22.99 57.68 22.83 58.75 23.71C59.81 24.59 59.97 26.17 59.09 27.23C57.18 29.55 55.8 32.31 55.08 35.21C54.8 36.35 53.78 37.12 52.66 37.12ZM104.39 83.97C105.86 84.24 106.71 85.79 106.16 87.19L83.77 143.71C80.46 152.09 68.44 152.09 65.13 143.71L42.81 87.36C42.24 85.92 43.18 84.33 44.72 84.12C45.73 83.98 46.73 83.76 47.72 83.46C49.17 83.02 50.66 84.01 50.8 85.52C51.03 87.96 51.91 91.36 55 94.33C62.66 101.72 74.83 97.99 77.92 88.73C78.45 87.14 80.41 86.61 81.71 87.67C87.82 92.62 97.52 91.66 101.92 84.95C102.41 84.21 103.33 83.77 104.39 83.97Z" fill="#64646A" fill-opacity="1.000000" fill-rule="nonzero"/>
	</g>
</svg>
